<?xml version="1.0" encoding="UTF-8"?>
<svg width="2000px" height="2000px" viewBox="0 0 2000 2000" version="1.1" xmlns="http://www.w3.org/2000/svg">
    <g stroke="none" stroke-width="1" fill="none" fill-rule="evenodd">
        <circle fill="#F7931A" cx="1000" cy="1000" r="1000"/>
        <path d="M1437.5,936.1 C1417.9,766.7 1265.7,705.8 1082.9,685.2 L1082.9,438.3 L957.4,438.3 L957.4,678.7 C920.2,678.7 882.1,679.6 844.2,680.6 L844.2,438.3 L718.7,438.3 L718.7,685.2 C688.2,686 658.3,686.8 629.2,686.8 L629.2,686.8 L452.1,686.8 L452.1,820.2 C452.1,820.2 542.8,818.8 541.8,820.2 C599.1,820.2 621.8,851.6 627.4,879.3 L627.4,1161.5 C631.7,1161.5 637.1,1162 643.3,1163.1 C638.4,1163.4 632.9,1163.7 627.4,1163.9 L627.4,1561.7 C624,1578.8 609.9,1605.2 570.4,1605.2 C571.5,1606.7 480.7,1605.2 480.7,1605.2 L452.1,1752.1 L618.4,1752.1 C652.8,1752.1 686.7,1752.7 720.1,1752.9 L720.1,2000 L845.6,2000 L845.6,1756.5 C884.7,1757.1 922.7,1757.4 959.9,1757.4 L959.9,2000 L1085.4,2000 L1085.4,1753.8 C1328.9,1738.2 1499.9,1669.7 1526.8,1437.5 C1548.5,1252.8 1457.1,1171.7 1316.7,1134.5 C1412.3,1087.7 1452.1,1005.6 1437.5,936.1 L1437.5,936.1 Z M1255.2,1397.9 C1255.2,1576.5 957.4,1560.9 845.6,1560.9 L845.6,1234.8 C957.4,1234.8 1255.2,1210.3 1255.2,1397.9 Z M845.6,1127.9 L845.6,831.3 C941.8,831.3 1197.9,809.6 1197.9,979.6 C1197.9,1142.6 941.8,1127.9 845.6,1127.9 Z" fill="#FFFFFF"/>
    </g>
</svg>
