<?xml version="1.0" encoding="UTF-8"?>
<svg width="2000px" height="2000px" viewBox="0 0 2000 2000" version="1.1" xmlns="http://www.w3.org/2000/svg">
    <g stroke="none" stroke-width="1" fill="none" fill-rule="evenodd">
        <circle fill="#26A17B" cx="1000" cy="1000" r="1000"/>
        <path d="M1000,0 C447.82,0 0,447.82 0,1000 C0,1552.18 447.82,2000 1000,2000 C1552.18,2000 2000,1552.18 2000,1000 C2000,447.82 1552.18,0 1000,0" fill="#26A17B"/>
        <path d="M1123.54,866.81 C1120.99,866.81 1005.78,866.99 973.67,866.99 C941.56,866.99 825.44,866.81 822.89,866.81 C613.34,866.81 443.96,838.96 443.96,804.76 C443.96,770.56 613.34,742.71 822.89,742.71 L973.67,742.71 L1123.54,742.71 C1333.09,742.71 1502.47,770.56 1502.47,804.76 C1502.47,838.96 1333.09,866.81 1123.54,866.81" fill="#FFFFFF"/>
        <path d="M973.67,1063.08 L973.67,1286.29 C582.15,1286.29 264.65,1246.17 264.65,1196.77 L264.65,973.56 C264.65,1022.96 582.15,1063.08 973.67,1063.08" fill="#FFFFFF"/>
        <path d="M973.67,742.71 L973.67,866.99 C973.67,866.99 941.56,866.99 822.89,866.81 C613.34,866.81 443.96,838.96 443.96,804.76 C443.96,770.56 613.34,742.71 822.89,742.71 L973.67,742.71 Z" fill="#FFFFFF"/>
        <path d="M1123.54,742.71 L973.67,742.71 L973.67,866.99 C1005.78,866.99 1120.99,866.81 1123.54,866.81 C1333.09,866.81 1502.47,838.96 1502.47,804.76 C1502.47,770.56 1333.09,742.71 1123.54,742.71" fill="#FFFFFF"/>
        <path d="M973.67,1063.08 L973.67,1286.29 C1365.19,1286.29 1682.69,1246.17 1682.69,1196.77 L1682.69,973.56 C1682.69,1022.96 1365.19,1063.08 973.67,1063.08" fill="#FFFFFF"/>
    </g>
</svg>
